<svg id="visual" viewBox="0 0 900 600" width="900" height="600" xmlns="http://www.w3.org/2000/svg" xmlns:xlink="http://www.w3.org/1999/xlink" version="1.1"><path d="M0 157L30 163C60 169 120 181 180 176C240 171 300 149 360 161C420 173 480 219 540 235C600 251 660 237 720 212C780 187 840 151 870 133L900 115L900 0L870 0C840 0 780 0 720 0C660 0 600 0 540 0C480 0 420 0 360 0C300 0 240 0 180 0C120 0 60 0 30 0L0 0Z" fill="#c2a23a"></path><path d="M0 229L30 241C60 253 120 277 180 272C240 267 300 233 360 242C420 251 480 303 540 328C600 353 660 351 720 323C780 295 840 241 870 214L900 187L900 113L870 131C840 149 780 185 720 210C660 235 600 249 540 233C480 217 420 171 360 159C300 147 240 169 180 174C120 179 60 167 30 161L0 155Z" fill="#af8d1a"></path><path d="M0 469L30 466C60 463 120 457 180 453C240 449 300 447 360 456C420 465 480 485 540 490C600 495 660 485 720 475C780 465 840 455 870 450L900 445L900 185L870 212C840 239 780 293 720 321C660 349 600 351 540 326C480 301 420 249 360 240C300 231 240 265 180 270C120 275 60 251 30 239L0 227Z" fill="#957704"></path><path d="M0 601L30 601C60 601 120 601 180 601C240 601 300 601 360 601C420 601 480 601 540 601C600 601 660 601 720 601C780 601 840 601 870 601L900 601L900 443L870 448C840 453 780 463 720 473C660 483 600 493 540 488C480 483 420 463 360 454C300 445 240 447 180 451C120 455 60 461 30 464L0 467Z" fill="#776007"></path></svg>